<svg width="70" height="63" viewBox="0 0 70 63" fill="none" xmlns="http://www.w3.org/2000/svg">
<g id="np_chart_552163_000000">
<path id="Path" d="M0.431152 59.125H69.1822V62.251H0.431152L0.431152 59.125Z" fill="white"/>
<path id="Path_2" d="M9.80615 49.75H12.9322V55.999H9.80615V49.75Z" fill="white"/>
<path id="Path_3" d="M25.4302 40.375H28.5562V55.999H25.4302V40.375Z" fill="white"/>
<path id="Path_4" d="M41.0542 27.874H44.1802V55.999H41.0542V27.874Z" fill="white"/>
<path id="Path_5" d="M56.6812 12.25H59.8072V55.999H56.6812V12.25Z" fill="white"/>
<path id="Path_6" d="M47.3737 0.381836L52.2604 11.8868L49.3835 13.1085L45.7184 4.47751L37.0904 8.14254L35.8688 5.26561L47.3737 0.381836Z" fill="white"/>
<path id="Path_7" d="M10.5299 39.7892C12.027 39.3175 13.6881 38.7053 15.4753 37.9318C20.5642 35.7228 25.6528 32.673 30.4048 28.6385C37.2866 22.7967 42.8615 15.3875 46.6618 6.23528L47.2594 4.79386L44.3736 3.59558L43.7731 5.03701C40.1725 13.7175 34.8961 20.7255 28.3831 26.2568C23.8801 30.08 19.0546 32.9716 14.2298 35.0633C12.5482 35.7928 10.9867 36.3699 9.59212 36.8093C8.76592 37.0671 8.18879 37.2224 7.89877 37.2869L6.37537 37.6326L7.06384 40.6795L8.58724 40.3367C8.95931 40.2517 9.61849 40.0759 10.5296 39.7888L10.5299 39.7892Z" fill="white"/>
<path id="Path_8" d="M16.0671 25.1057C17.6843 24.716 19.1286 23.7961 19.8933 22.1819C21.4548 18.8802 19.8846 16.551 16.5447 14.8079C16.0643 14.5559 16.2078 14.6233 14.8455 13.9964C13.5828 13.4134 13.6912 13.4661 13.2782 13.2493C11.2509 12.1887 10.6884 11.3509 11.3299 9.99446C12.118 8.32744 15.7245 8.42711 16.9901 9.32357L18.2645 10.2288L20.0721 7.68002L18.7977 6.77477C18.077 6.265 17.119 5.88414 16.0673 5.67617V2.87537H12.9413V5.60874C11.0838 5.90464 9.36417 6.84212 8.50572 8.65854C6.94715 11.9515 8.50865 14.2806 11.8309 16.0179C12.3143 16.2699 12.1971 16.2171 13.536 16.8353C14.8221 17.4271 14.6874 17.3626 15.0975 17.5794C17.1453 18.6458 17.7108 19.4867 17.0662 20.846C16.2781 22.5101 12.6746 22.4105 11.409 21.514L10.1346 20.6087L8.32692 23.1605L9.60132 24.0628C10.4568 24.6692 11.655 25.097 12.9411 25.2611V27.8744H16.0671V25.1057Z" fill="white"/>
</g>
</svg>
