<svg xmlns="http://www.w3.org/2000/svg" xmlns:xlink="http://www.w3.org/1999/xlink" width="346.294" height="433.776" viewBox="0 0 346.294 433.776">
  <defs>
    <clipPath id="clip-path">
      <path id="Clip_324" data-name="Clip 324" d="M0,0H32.834V18.953H0Z" transform="translate(0.016 0.034)" fill="none"/>
    </clipPath>
    <clipPath id="clip-path-2">
      <path id="Clip_361" data-name="Clip 361" d="M0,0H46.038V60.1H0Z" transform="translate(0.146 0.224)" fill="none"/>
    </clipPath>
  </defs>
  <g id="Group_372" data-name="Group 372" transform="translate(0 -0.224)">
    <path id="Fill_1" data-name="Fill 1" d="M42,24,63,12,42,0,21,12,0,24,21,36h0L42,48,63,36Z" transform="translate(32 144)" fill="#d4ecff"/>
    <path id="Fill_2" data-name="Fill 2" d="M0,100V12L21,0V88Z" transform="translate(74 38)" fill="#173d7a"/>
    <path id="Fill_3" data-name="Fill 3" d="M21,12,0,0V88l21,12Z" transform="translate(53 38)" fill="#396caa"/>
    <path id="Fill_4" data-name="Fill 4" d="M42,12,21,0,0,12,21,24Z" transform="translate(53 26)" fill="#d4ecff"/>
    <path id="Fill_5" data-name="Fill 5" d="M21,12,0,0V8L21,20Z" transform="translate(74 130)" fill="#95d359"/>
    <path id="Fill_6" data-name="Fill 6" d="M0,76V12L21,0V64Z" transform="translate(53 74)" fill="#c13d1a"/>
    <path id="Fill_7" data-name="Fill 7" d="M21,12,0,0V64L21,76Z" transform="translate(32 74)" fill="#db5126"/>
    <path id="Fill_8" data-name="Fill 8" d="M42,12,21,0,0,12,21,24Z" transform="translate(32 62)" fill="#ef602e"/>
    <path id="Fill_9" data-name="Fill 9" d="M0,76V12L21,0V64Z" transform="translate(53 74)" fill="#396caa"/>
    <path id="Fill_10" data-name="Fill 10" d="M21,12,0,0V64L21,76Z" transform="translate(32 74)" fill="#5793ce"/>
    <path id="Fill_11" data-name="Fill 11" d="M42,12,21,0,0,12,21,24Z" transform="translate(32 62)" fill="#d4ecff"/>
    <path id="Fill_12" data-name="Fill 12" d="M0,48V12L21,0V36Z" transform="translate(74 114)" fill="#173d7a"/>
    <path id="Fill_13" data-name="Fill 13" d="M21,12,0,0V36L21,48Z" transform="translate(53 114)" fill="#396caa"/>
    <path id="Fill_14" data-name="Fill 14" d="M42,12,21,0,0,12,21,24Z" transform="translate(53 102)" fill="#d4ecff"/>
    <g id="Group_371" data-name="Group 371">
      <path id="Fill_15" data-name="Fill 15" d="M160.529,165.305,3.008,74.382c-4.457-2.573-3.9-7.065,1.248-10.035L111.518,2.457c5.144-2.969,12.928-3.292,17.384-.721L286.423,92.659c4.455,2.571,3.9,7.064-1.248,10.035l-107.26,61.891c-5.146,2.969-12.929,3.292-17.386.721" transform="translate(26.12 238.911)" fill="#d4ecff"/>
      <path id="Fill_17" data-name="Fill 17" d="M171.137,93.442,11.015,1.1A6.135,6.135,0,0,0,5.533.36L5.539.342,5.278.463c-.021.01-.043.019-.063.03L0,2.944,5.661,5.761c0,.107-.013.206-.013.313L5.7,137.554c0,6.581,4.075,14.263,9.1,17.159L170.645,244.6l.885,7.335,5.692-2.714c1.874-1.1,3.062-3.59,3.06-7.135L180.234,110.6c0-6.58-4.075-14.262-9.1-17.159" transform="translate(147.234 59.273)" fill="#173d7a"/>
      <path id="Fill_19" data-name="Fill 19" d="M171.137,93.442,11.015,1.1A6.135,6.135,0,0,0,5.533.36L5.539.342,5.278.463c-.021.01-.043.019-.063.03L0,2.944,5.661,5.761c0,.107-.013.206-.013.313l.033,86.654L78.552,150.29l98.941-49.782a17.951,17.951,0,0,0-6.356-7.067" transform="translate(147.234 59.273)" fill="#396caa"/>
      <path id="Fill_21" data-name="Fill 21" d="M15.692,0,0,6.6l11.848,9.125,9.892-4.212A23.024,23.024,0,0,0,15.692,0" transform="translate(305.353 154.784)" fill="#274f89"/>
      <path id="Fill_23" data-name="Fill 23" d="M169.267,248.761,9.148,156.414c-5.022-2.9-9.1-10.577-9.1-17.157L0,7.776C0,1.2,4.067-1.79,9.089,1.107L169.21,93.451c5.022,2.9,9.095,10.579,9.1,17.159l.049,131.481c0,6.581-4.065,9.565-9.089,6.67" transform="translate(143.889 61.746)" fill="#d4ecff"/>
      <path id="Fill_25" data-name="Fill 25" d="M157.914,229.337,8.369,143.133c-4.6-2.65-8.324-9.681-8.325-15.7L0,7.115c0-6.02,3.721-8.753,8.317-6.1l149.544,86.2c4.6,2.651,8.324,9.679,8.327,15.7l.044,120.317c0,6.02-3.721,8.753-8.318,6.1" transform="translate(149.916 71.389)" fill="#fff"/>
      <path id="Fill_27" data-name="Fill 27" d="M157.914,229.337,8.369,143.133c-4.6-2.65-8.324-9.681-8.325-15.7L0,7.115c0-6.02,3.721-8.753,8.317-6.1l149.544,86.2c4.6,2.651,8.324,9.679,8.327,15.7l.044,120.317c0,6.02-3.721,8.753-8.318,6.1" transform="translate(149.916 71.389)" fill="#fff"/>
      <path id="Fill_29" data-name="Fill 29" d="M289.422,84.807,267.89,81.965,128.9,1.736c-4.455-2.571-12.239-2.25-17.384.72L13.019,59.286,0,57.567v7.387H.013C-.071,66.661.9,68.3,3,69.516l157.519,90.923c4.457,2.571,12.241,2.25,17.386-.72l107.26-61.892c2.9-1.67,4.338-3.823,4.254-5.845Z" transform="translate(26.126 229.783)" fill="#173d7a"/>
      <path id="Fill_31" data-name="Fill 31" d="M184.987,5.7,175.111,0H66.544L13.019,30.873,0,29.154V36.54H.013C-.073,38.248.9,39.889,3,41.1l157.519,90.922a16.3,16.3,0,0,0,8.972,1.682Z" transform="translate(26.126 258.196)" fill="#396caa"/>
      <path id="Fill_33" data-name="Fill 33" d="M5.778.762,0,0V7.387H.013C-.073,9.094.9,10.736,3,11.949l2.775,1.6Z" transform="translate(26.126 287.35)" fill="#5793ce"/>
      <path id="Fill_35" data-name="Fill 35" d="M0,17.391a20.172,20.172,0,0,0,14.772-.918V0H0Z" transform="translate(188.236 373.568)" fill="#274f89"/>
      <path id="Fill_37" data-name="Fill 37" d="M160.529,165.3,3.008,74.382c-4.457-2.571-3.9-7.064,1.248-10.035L111.518,2.458c5.144-2.971,12.928-3.294,17.384-.721L286.423,92.658c4.455,2.573,3.9,7.065-1.248,10.036l-107.26,61.889c-5.146,2.971-12.929,3.294-17.386.721" transform="translate(26.12 217.54)" fill="#d4ecff"/>
      <path id="Fill_39" data-name="Fill 39" d="M285.165,31.341,177.905,93.231c-5.146,2.971-12.929,3.292-17.386.721L3,3.029A5.861,5.861,0,0,1,.229,0C-.468,2.107.421,4.239,3,5.728L160.52,96.649c4.457,2.573,12.239,2.25,17.386-.72l107.26-61.891c3.459-2,4.835-4.68,4.018-7.007a8.367,8.367,0,0,1-4.018,4.309" transform="translate(26.13 286.196)" fill="#fff"/>
      <path id="Fill_41" data-name="Fill 41" d="M7.514,10.574.387,6.46c-.573-.33-.5-.908.16-1.289L8.96.315A2.483,2.483,0,0,1,11.192.223l7.127,4.114c.573.33.5.908-.16,1.288L9.746,10.482a2.488,2.488,0,0,1-2.232.093" transform="translate(88.61 251.248)" fill="#173d7a"/>
      <path id="Fill_43" data-name="Fill 43" d="M7.514,10.573.387,6.46c-.573-.33-.5-.908.16-1.289L8.96.314A2.487,2.487,0,0,1,11.192.223l7.126,4.114c.574.33.5.908-.16,1.288L9.746,10.482a2.483,2.483,0,0,1-2.232.091" transform="translate(99.617 257.601)" fill="#173d7a"/>
      <path id="Fill_45" data-name="Fill 45" d="M7.514,10.573.387,6.46c-.574-.33-.5-.908.16-1.289L8.96.314A2.487,2.487,0,0,1,11.191.223l7.127,4.114c.574.33.5.908-.16,1.288L9.746,10.482a2.483,2.483,0,0,1-2.232.091" transform="translate(110.624 263.954)" fill="#173d7a"/>
      <path id="Fill_47" data-name="Fill 47" d="M7.514,9.794.387,5.68c-.574-.33-.5-.907.16-1.288L7.609.315A2.486,2.486,0,0,1,9.842.223l7.127,4.114c.571.33.5.905-.16,1.288L9.746,9.7a2.487,2.487,0,0,1-2.232.091" transform="translate(125.846 259.487)" fill="#173d7a"/>
      <path id="Fill_49" data-name="Fill 49" d="M7.513,9.794.387,5.68c-.574-.33-.5-.908.159-1.288L7.609.315A2.485,2.485,0,0,1,9.842.223l7.126,4.114c.573.328.5.905-.159,1.288L9.745,9.7a2.487,2.487,0,0,1-2.232.091" transform="translate(136.853 265.84)" fill="#173d7a"/>
      <path id="Fill_51" data-name="Fill 51" d="M7.514,9.795.387,5.68c-.573-.33-.5-.908.16-1.288L7.608.315A2.481,2.481,0,0,1,9.841.224l7.127,4.113c.571.33.5.907-.16,1.289L9.746,9.7a2.483,2.483,0,0,1-2.232.093" transform="translate(147.859 272.193)" fill="#173d7a"/>
      <path id="Fill_53" data-name="Fill 53" d="M7.514,9.795.387,5.68c-.573-.33-.5-.908.16-1.288L7.608.315A2.481,2.481,0,0,1,9.841.224l7.127,4.113c.571.33.5.907-.16,1.289L9.746,9.7a2.483,2.483,0,0,1-2.232.093" transform="translate(158.866 278.546)" fill="#173d7a"/>
      <path id="Fill_55" data-name="Fill 55" d="M7.514,9.8.387,5.681c-.574-.33-.5-.908.16-1.288L7.609.316A2.482,2.482,0,0,1,9.842.223l7.127,4.114c.571.33.5.907-.16,1.289L9.746,9.7A2.488,2.488,0,0,1,7.514,9.8" transform="translate(169.872 284.899)" fill="#173d7a"/>
      <path id="Fill_57" data-name="Fill 57" d="M7.513,9.8.387,5.681c-.574-.33-.5-.908.16-1.289L7.609.316A2.481,2.481,0,0,1,9.842.223l7.126,4.114c.573.33.5.907-.16,1.288L9.745,9.7A2.487,2.487,0,0,1,7.513,9.8" transform="translate(180.879 291.252)" fill="#173d7a"/>
      <path id="Fill_59" data-name="Fill 59" d="M7.514,9.794.387,5.681c-.573-.33-.5-.908.16-1.289L7.608.316A2.482,2.482,0,0,1,9.841.223l7.127,4.114c.573.33.5.907-.16,1.288L9.746,9.7a2.483,2.483,0,0,1-2.232.091" transform="translate(191.885 297.605)" fill="#173d7a"/>
      <path id="Fill_61" data-name="Fill 61" d="M7.514,9.794.387,5.68c-.573-.328-.5-.907.16-1.288L7.608.315A2.486,2.486,0,0,1,9.841.223l7.127,4.114c.571.33.5.907-.16,1.288L9.746,9.7a2.487,2.487,0,0,1-2.232.091" transform="translate(202.892 303.958)" fill="#173d7a"/>
      <path id="Fill_63" data-name="Fill 63" d="M7.514,9.794.387,5.68c-.574-.33-.5-.907.16-1.288L7.609.315A2.486,2.486,0,0,1,9.842.223l7.127,4.114c.571.33.5.905-.16,1.288L9.746,9.7a2.487,2.487,0,0,1-2.232.091" transform="translate(213.899 310.312)" fill="#173d7a"/>
      <path id="Fill_65" data-name="Fill 65" d="M7.513,9.794.386,5.68c-.573-.33-.5-.908.16-1.288L7.608.315A2.486,2.486,0,0,1,9.841.223l7.127,4.114c.573.33.5.905-.16,1.288L9.745,9.7a2.487,2.487,0,0,1-2.232.091" transform="translate(224.905 316.665)" fill="#173d7a"/>
      <path id="Fill_67" data-name="Fill 67" d="M7.514,9.795.387,5.68c-.573-.33-.5-.908.16-1.288L7.608.315A2.481,2.481,0,0,1,9.841.224l7.127,4.113c.571.33.5.907-.16,1.289L9.746,9.7a2.483,2.483,0,0,1-2.232.093" transform="translate(142.063 256.479)" fill="#396caa"/>
      <path id="Fill_69" data-name="Fill 69" d="M7.514,9.795.387,5.68c-.574-.33-.5-.908.16-1.288L7.609.315A2.481,2.481,0,0,1,9.842.224l7.127,4.113c.571.33.5.907-.16,1.289L9.746,9.7a2.483,2.483,0,0,1-2.232.093" transform="translate(130.893 250.031)" fill="#396caa"/>
      <path id="Fill_71" data-name="Fill 71" d="M15.737,14.54.386,5.68c-.571-.33-.5-.908.16-1.288L7.608.315A2.483,2.483,0,0,1,9.84.223l15.351,8.86c.571.33.5.907-.16,1.288l-7.063,4.077a2.483,2.483,0,0,1-2.232.091" transform="translate(111.481 238.827)" fill="#173d7a"/>
      <path id="Fill_73" data-name="Fill 73" d="M12.844,12.871.386,5.68c-.573-.331-.5-.907.161-1.288L7.609.315A2.478,2.478,0,0,1,9.841.224L22.3,7.413c.573.33.5.907-.159,1.289l-7.064,4.076a2.48,2.48,0,0,1-2.231.093" transform="translate(122.196 232.642)" fill="#173d7a"/>
      <path id="Fill_75" data-name="Fill 75" d="M7.514,9.795.387,5.68c-.573-.33-.5-.908.16-1.289L7.608.315A2.486,2.486,0,0,1,9.841.223l7.127,4.114c.571.33.5.907-.16,1.288L9.746,9.7a2.483,2.483,0,0,1-2.232.093" transform="translate(153.07 262.832)" fill="#396caa"/>
      <path id="Fill_77" data-name="Fill 77" d="M7.514,9.794.387,5.681c-.574-.33-.5-.908.16-1.289L7.609.316A2.482,2.482,0,0,1,9.842.223l7.127,4.114c.571.33.5.907-.16,1.288L9.746,9.7a2.483,2.483,0,0,1-2.232.091" transform="translate(164.077 269.185)" fill="#173d7a"/>
      <path id="Fill_79" data-name="Fill 79" d="M7.513,9.794.387,5.681c-.574-.33-.5-.908.159-1.289L7.609.316A2.481,2.481,0,0,1,9.842.223l7.126,4.114c.573.33.5.907-.16,1.288L9.745,9.7a2.482,2.482,0,0,1-2.232.091" transform="translate(175.084 275.538)" fill="#173d7a"/>
      <path id="Fill_81" data-name="Fill 81" d="M7.514,9.794.387,5.68c-.573-.328-.5-.907.16-1.288L7.608.315A2.486,2.486,0,0,1,9.841.223l7.127,4.114c.573.33.5.907-.16,1.288L9.746,9.7a2.487,2.487,0,0,1-2.232.091" transform="translate(186.09 281.891)" fill="#173d7a"/>
      <path id="Fill_83" data-name="Fill 83" d="M7.514,9.794.387,5.68c-.573-.33-.5-.907.16-1.288L7.608.315A2.486,2.486,0,0,1,9.841.223l7.127,4.114c.571.33.5.905-.16,1.288L9.746,9.7a2.487,2.487,0,0,1-2.232.091" transform="translate(197.097 288.245)" fill="#173d7a"/>
      <path id="Fill_85" data-name="Fill 85" d="M7.514,9.794.387,5.68c-.574-.33-.5-.908.16-1.288L7.609.315A2.486,2.486,0,0,1,9.842.223l7.127,4.114c.571.328.5.905-.16,1.288L9.746,9.7a2.487,2.487,0,0,1-2.232.091" transform="translate(208.103 294.598)" fill="#173d7a"/>
      <path id="Fill_87" data-name="Fill 87" d="M7.513,9.795.386,5.68c-.573-.33-.5-.908.16-1.288L7.608.315A2.481,2.481,0,0,1,9.841.224l7.127,4.113c.573.33.5.907-.16,1.289L9.745,9.7a2.487,2.487,0,0,1-2.232.091" transform="translate(219.109 300.951)" fill="#173d7a"/>
      <path id="Fill_89" data-name="Fill 89" d="M7.514,9.795.387,5.68c-.573-.33-.5-.908.16-1.288L7.608.315A2.481,2.481,0,0,1,9.841.224l7.127,4.113c.571.33.5.907-.16,1.289L9.746,9.7a2.483,2.483,0,0,1-2.232.093" transform="translate(230.116 307.304)" fill="#173d7a"/>
      <path id="Fill_91" data-name="Fill 91" d="M7.514,9.795.387,5.68c-.573-.33-.5-.908.16-1.288L7.608.315A2.486,2.486,0,0,1,9.841.223l7.127,4.114c.571.33.5.907-.16,1.288L9.746,9.7a2.483,2.483,0,0,1-2.232.093" transform="translate(241.123 313.657)" fill="#173d7a"/>
      <path id="Fill_93" data-name="Fill 93" d="M15.936,14.657.386,5.68c-.571-.331-.5-.907.161-1.288L7.608.315A2.478,2.478,0,0,1,9.84.224L25.391,9.2c.573.33.5.907-.16,1.289l-7.063,4.076a2.483,2.483,0,0,1-2.232.093" transform="translate(252.267 320.089)" fill="#173d7a"/>
      <path id="Fill_95" data-name="Fill 95" d="M13.513,13.256.387,5.68c-.573-.33-.5-.907.16-1.289L7.608.316A2.486,2.486,0,0,1,9.841.222L22.967,7.8c.571.33.5.905-.16,1.288l-7.063,4.077a2.487,2.487,0,0,1-2.232.091" transform="translate(276.12 309.121)" fill="#173d7a"/>
      <path id="Fill_97" data-name="Fill 97" d="M7.514,9.794.387,5.68c-.573-.33-.5-.908.16-1.288L7.608.315A2.486,2.486,0,0,1,9.841.223l7.127,4.114c.571.328.5.905-.16,1.288L9.746,9.7a2.487,2.487,0,0,1-2.232.091" transform="translate(172.345 261.589)" fill="#173d7a"/>
      <path id="Fill_99" data-name="Fill 99" d="M7.514,9.795.387,5.68c-.573-.33-.5-.908.16-1.288L7.608.315A2.481,2.481,0,0,1,9.841.224l7.127,4.113c.571.33.5.907-.16,1.289L9.746,9.7a2.483,2.483,0,0,1-2.232.093" transform="translate(161.065 255.078)" fill="#173d7a"/>
      <path id="Fill_101" data-name="Fill 101" d="M7.514,9.8.387,5.681c-.574-.33-.5-.908.16-1.289L7.609.316A2.482,2.482,0,0,1,9.842.223l7.127,4.114c.571.33.5.907-.16,1.288L9.746,9.7A2.488,2.488,0,0,1,7.514,9.8" transform="translate(149.784 248.567)" fill="#396caa"/>
      <path id="Fill_103" data-name="Fill 103" d="M7.514,9.794.387,5.681c-.574-.33-.5-.908.16-1.289L7.609.315A2.486,2.486,0,0,1,9.842.223l7.127,4.114c.571.33.5.907-.16,1.288L9.746,9.7a2.487,2.487,0,0,1-2.232.091" transform="translate(138.504 242.056)" fill="#173d7a"/>
      <path id="Fill_105" data-name="Fill 105" d="M7.514,9.794.387,5.68c-.574-.33-.5-.908.16-1.288L7.609.315A2.486,2.486,0,0,1,9.842.223l7.126,4.113c.573.33.5.907-.159,1.289L9.746,9.7a2.487,2.487,0,0,1-2.232.091" transform="translate(183.352 267.943)" fill="#173d7a"/>
      <path id="Fill_107" data-name="Fill 107" d="M7.513,9.795.386,5.68c-.573-.33-.5-.908.16-1.288L7.608.315A2.481,2.481,0,0,1,9.841.224l7.127,4.113c.573.33.5.907-.16,1.289L9.745,9.7a2.483,2.483,0,0,1-2.232.093" transform="translate(194.358 274.296)" fill="#173d7a"/>
      <path id="Fill_109" data-name="Fill 109" d="M7.514,9.795.387,5.68c-.573-.33-.5-.908.16-1.288L7.608.315A2.486,2.486,0,0,1,9.841.223l7.127,4.114c.571.33.5.907-.16,1.288L9.746,9.7a2.483,2.483,0,0,1-2.232.093" transform="translate(205.365 280.648)" fill="#173d7a"/>
      <path id="Fill_111" data-name="Fill 111" d="M7.514,9.794.387,5.681c-.573-.33-.5-.908.16-1.289L7.608.316A2.482,2.482,0,0,1,9.841.223l7.127,4.114c.571.33.5.907-.16,1.288L9.746,9.7a2.483,2.483,0,0,1-2.232.091" transform="translate(216.372 287.001)" fill="#173d7a"/>
      <path id="Fill_113" data-name="Fill 113" d="M7.514,9.794.387,5.681c-.574-.33-.5-.908.16-1.289L7.609.316A2.481,2.481,0,0,1,9.842.223l7.127,4.114c.571.33.5.907-.16,1.288L9.746,9.7a2.483,2.483,0,0,1-2.232.091" transform="translate(227.378 293.354)" fill="#173d7a"/>
      <path id="Fill_115" data-name="Fill 115" d="M7.513,9.794.386,5.681c-.573-.33-.5-.908.16-1.289L7.608.315A2.486,2.486,0,0,1,9.841.223l7.127,4.114c.573.33.5.907-.16,1.288L9.745,9.7a2.487,2.487,0,0,1-2.232.091" transform="translate(238.385 299.708)" fill="#173d7a"/>
      <path id="Fill_117" data-name="Fill 117" d="M7.514,9.794.387,5.68c-.573-.33-.5-.907.16-1.288L7.608.315A2.486,2.486,0,0,1,9.841.223l7.127,4.114c.571.33.5.905-.16,1.288L9.746,9.7a2.487,2.487,0,0,1-2.232.091" transform="translate(249.391 306.061)" fill="#173d7a"/>
      <path id="Fill_119" data-name="Fill 119" d="M7.514,9.794.387,5.68c-.574-.33-.5-.908.16-1.288L7.609.315A2.486,2.486,0,0,1,9.842.223l7.127,4.114c.571.328.5.905-.16,1.288L9.746,9.7a2.487,2.487,0,0,1-2.232.091" transform="translate(260.397 312.414)" fill="#173d7a"/>
      <path id="Fill_121" data-name="Fill 121" d="M7.513,9.794.387,5.68c-.574-.33-.5-.908.16-1.288L7.609.315A2.485,2.485,0,0,1,9.842.223l7.126,4.113c.573.33.5.907-.159,1.289L9.745,9.7a2.487,2.487,0,0,1-2.232.091" transform="translate(271.404 318.767)" fill="#173d7a"/>
      <path id="Fill_123" data-name="Fill 123" d="M7.514,9.795.387,5.68c-.573-.33-.5-.908.16-1.288L7.608.315A2.481,2.481,0,0,1,9.841.224l7.127,4.113c.571.33.5.907-.16,1.289L9.746,9.7a2.483,2.483,0,0,1-2.232.093" transform="translate(166.55 245.875)" fill="#173d7a"/>
      <path id="Fill_125" data-name="Fill 125" d="M7.513,9.8.386,5.681c-.573-.33-.5-.908.16-1.289L7.608.316A2.482,2.482,0,0,1,9.841.223l7.127,4.114c.573.33.5.907-.16,1.289L9.745,9.7A2.483,2.483,0,0,1,7.513,9.8" transform="translate(155.598 239.553)" fill="#173d7a"/>
      <path id="Fill_127" data-name="Fill 127" d="M7.514,9.794.387,5.681c-.573-.33-.5-.908.16-1.289L7.608.316A2.482,2.482,0,0,1,9.841.223l7.127,4.114c.571.33.5.907-.16,1.288L9.746,9.7a2.483,2.483,0,0,1-2.232.091" transform="translate(144.646 233.232)" fill="#173d7a"/>
      <path id="Fill_129" data-name="Fill 129" d="M7.513,9.794.387,5.68c-.574-.33-.5-.907.159-1.288L7.607.315A2.486,2.486,0,0,1,9.841.223l7.127,4.114c.573.33.5.907-.16,1.288L9.745,9.7a2.487,2.487,0,0,1-2.232.091" transform="translate(133.694 226.911)" fill="#173d7a"/>
      <path id="Fill_131" data-name="Fill 131" d="M7.514,7.065.387,2.951c-.573-.33-.5-.908.16-1.288L2.881.314A2.487,2.487,0,0,1,5.113.223l7.128,4.113c.571.33.5.908-.161,1.289L9.746,6.973a2.483,2.483,0,0,1-2.232.093" transform="translate(144.956 223.14)" fill="#173d7a"/>
      <path id="Fill_133" data-name="Fill 133" d="M7.514,7.065.387,2.951c-.573-.33-.5-.908.16-1.288L2.881.314A2.487,2.487,0,0,1,5.113.223l7.128,4.114c.571.328.5.907-.161,1.288L9.746,6.973a2.483,2.483,0,0,1-2.232.093" transform="translate(159.248 231.389)" fill="#173d7a"/>
      <path id="Fill_135" data-name="Fill 135" d="M7.514,7.065.387,2.951c-.574-.33-.5-.907.16-1.288L2.882.315A2.483,2.483,0,0,1,5.114.223l7.128,4.114c.571.33.5.908-.161,1.288L9.746,6.974a2.487,2.487,0,0,1-2.232.091" transform="translate(170.154 237.684)" fill="#173d7a"/>
      <path id="Fill_137" data-name="Fill 137" d="M7.513,7.065.387,2.952c-.574-.33-.5-.908.159-1.289L2.882.315A2.487,2.487,0,0,1,5.114.222l7.127,4.114c.573.33.5.908-.161,1.289L9.745,6.973a2.482,2.482,0,0,1-2.232.091" transform="translate(181.06 243.98)" fill="#173d7a"/>
      <path id="Fill_139" data-name="Fill 139" d="M7.514,7.065.387,2.951c-.573-.33-.5-.908.16-1.288L2.881.314A2.487,2.487,0,0,1,5.113.223l7.128,4.113c.573.33.5.908-.161,1.289L9.746,6.973a2.483,2.483,0,0,1-2.232.093" transform="translate(191.966 250.275)" fill="#173d7a"/>
      <path id="Fill_141" data-name="Fill 141" d="M7.514,7.065.387,2.951c-.573-.33-.5-.908.16-1.288L2.881.314A2.487,2.487,0,0,1,5.113.223l7.128,4.114c.573.33.5.908-.161,1.288L9.746,6.974a2.487,2.487,0,0,1-2.232.091" transform="translate(252.854 285.419)" fill="#173d7a"/>
      <path id="Fill_143" data-name="Fill 143" d="M7.514,7.065.387,2.952c-.573-.33-.5-.908.16-1.289L2.881.315A2.483,2.483,0,0,1,5.113.223l7.128,4.114c.571.33.5.908-.161,1.289L9.746,6.974a2.483,2.483,0,0,1-2.232.091" transform="translate(263.76 291.714)" fill="#173d7a"/>
      <path id="Fill_145" data-name="Fill 145" d="M7.514,7.066.387,2.951c-.574-.33-.5-.908.16-1.288L2.882.315A2.483,2.483,0,0,1,5.114.223l7.128,4.113c.571.33.5.908-.161,1.289L9.746,6.973a2.483,2.483,0,0,1-2.232.093" transform="translate(274.666 298.009)" fill="#173d7a"/>
      <path id="Fill_147" data-name="Fill 147" d="M7.513,7.065.387,2.951c-.574-.33-.5-.908.16-1.288L2.882.314A2.487,2.487,0,0,1,5.114.223l7.127,4.114c.573.33.5.908-.16,1.288L9.745,6.974a2.487,2.487,0,0,1-2.232.091" transform="translate(285.573 304.305)" fill="#173d7a"/>
      <path id="Fill_149" data-name="Fill 149" d="M7.514,9.795.387,5.68c-.574-.33-.5-.908.16-1.288L7.609.315A2.486,2.486,0,0,1,9.842.223l7.126,4.114c.573.33.5.907-.159,1.289L9.746,9.7a2.483,2.483,0,0,1-2.232.093" transform="translate(177.556 252.228)" fill="#173d7a"/>
      <path id="Fill_151" data-name="Fill 151" d="M7.514,9.8.387,5.681c-.573-.33-.5-.908.16-1.289L7.608.316A2.482,2.482,0,0,1,9.841.223l7.127,4.114c.573.33.5.907-.16,1.289L9.746,9.7A2.483,2.483,0,0,1,7.514,9.8" transform="translate(188.562 258.581)" fill="#173d7a"/>
      <path id="Fill_153" data-name="Fill 153" d="M7.514,9.794.387,5.681c-.573-.33-.5-.908.16-1.289L7.608.316A2.482,2.482,0,0,1,9.841.223l7.127,4.114c.571.33.5.907-.16,1.288L9.746,9.7a2.483,2.483,0,0,1-2.232.091" transform="translate(199.569 264.934)" fill="#173d7a"/>
      <path id="Fill_155" data-name="Fill 155" d="M7.514,9.794.387,5.681c-.573-.33-.5-.908.16-1.289L7.608.316A2.482,2.482,0,0,1,9.841.223l7.127,4.114c.571.33.5.907-.16,1.288L9.746,9.7a2.483,2.483,0,0,1-2.232.091" transform="translate(210.576 271.288)" fill="#173d7a"/>
      <path id="Fill_157" data-name="Fill 157" d="M7.514,9.794.387,5.68c-.574-.33-.5-.907.16-1.288L7.609.315A2.486,2.486,0,0,1,9.842.223l7.127,4.114c.571.33.5.907-.16,1.288L9.745,9.7a2.484,2.484,0,0,1-2.231.091" transform="translate(221.582 277.641)" fill="#173d7a"/>
      <path id="Fill_159" data-name="Fill 159" d="M7.513,9.794.386,5.68c-.573-.33-.5-.907.16-1.288L7.608.315A2.486,2.486,0,0,1,9.841.223l7.127,4.114c.573.33.5.905-.16,1.288L9.745,9.7a2.487,2.487,0,0,1-2.232.091" transform="translate(232.589 283.994)" fill="#173d7a"/>
      <path id="Fill_161" data-name="Fill 161" d="M7.514,9.794.387,5.68c-.573-.33-.5-.908.16-1.288L7.608.315A2.486,2.486,0,0,1,9.841.223l7.127,4.114c.571.33.5.905-.16,1.288L9.746,9.7a2.487,2.487,0,0,1-2.232.091" transform="translate(243.595 290.347)" fill="#173d7a"/>
      <path id="Fill_163" data-name="Fill 163" d="M7.514,9.795.387,5.68c-.574-.33-.5-.908.16-1.288L7.609.315A2.481,2.481,0,0,1,9.842.224l7.127,4.113c.571.33.5.907-.16,1.289L9.746,9.7a2.483,2.483,0,0,1-2.232.093" transform="translate(254.602 296.7)" fill="#173d7a"/>
      <path id="Fill_165" data-name="Fill 165" d="M7.513,9.795.387,5.68c-.574-.33-.5-.908.16-1.288L7.609.315A2.481,2.481,0,0,1,9.842.224l7.126,4.113c.573.33.5.907-.16,1.289L9.745,9.7a2.483,2.483,0,0,1-2.232.093" transform="translate(265.609 303.053)" fill="#173d7a"/>
      <path id="Fill_167" data-name="Fill 167" d="M21.377,17.8.387,5.681c-.573-.331-.5-.908.16-1.289L7.608.316A2.482,2.482,0,0,1,9.841.223l20.99,12.116c.573.33.5.907-.16,1.288L23.609,17.7a2.483,2.483,0,0,1-2.232.091" transform="translate(100.766 245.011)" fill="#173d7a"/>
      <path id="Fill_169" data-name="Fill 169" d="M21.377,17.8.387,5.68c-.574-.331-.5-.907.16-1.289L7.609.315A2.486,2.486,0,0,1,9.842.223l20.99,12.116c.571.33.5.907-.16,1.289L23.609,17.7a2.483,2.483,0,0,1-2.232.093" transform="translate(235.985 323.06)" fill="#173d7a"/>
      <path id="Fill_171" data-name="Fill 171" d="M7.513,10.574.387,6.46c-.574-.33-.5-.908.16-1.288L8.96.315A2.483,2.483,0,0,1,11.191.223l7.127,4.114c.573.33.5.908-.16,1.288L9.746,10.482a2.486,2.486,0,0,1-2.233.093" transform="translate(205.831 318.909)" fill="#173d7a"/>
      <path id="Fill_173" data-name="Fill 173" d="M11.784,13.04.386,6.46c-.573-.33-.5-.907.16-1.289L8.958.315A2.486,2.486,0,0,1,11.192.223L22.59,6.8c.573.33.5.908-.16,1.288l-8.414,4.857a2.483,2.483,0,0,1-2.232.093" transform="translate(121.63 270.307)" fill="#173d7a"/>
      <path id="Fill_175" data-name="Fill 175" d="M11.785,13.04.387,6.461c-.573-.331-.5-.908.16-1.289L8.959.317A2.479,2.479,0,0,1,11.191.222L22.589,6.8c.574.328.5.907-.16,1.288l-8.412,4.857a2.487,2.487,0,0,1-2.232.091" transform="translate(190.955 310.321)" fill="#173d7a"/>
      <path id="Fill_177" data-name="Fill 177" d="M11.785,13.039.387,6.461c-.573-.331-.5-.908.16-1.289L8.959.316A2.486,2.486,0,0,1,11.192.222L22.589,6.8c.574.328.5.907-.16,1.288l-8.412,4.857a2.487,2.487,0,0,1-2.232.091" transform="translate(137.511 279.473)" fill="#173d7a"/>
      <path id="Fill_179" data-name="Fill 179" d="M10.806,0,60.362,28.605a.678.678,0,0,1,0,1.285l-8.579,4.951a2.457,2.457,0,0,1-2.226,0L0,6.237Z" transform="translate(137.974 279.74)" fill="#173d7a"/>
      <path id="Fill_181" data-name="Fill 181" d="M5.72.182l7.938,4.583c.47.27.411.742-.131,1.055L10.085,7.807a2.034,2.034,0,0,1-1.831.076L.316,3.3c-.468-.273-.41-.745.131-1.058L3.889.258A2.039,2.039,0,0,1,5.72.182" transform="translate(238.388 340.819)" fill="#173d7a"/>
      <path id="Fill_183" data-name="Fill 183" d="M5.718.182l7.94,4.583c.47.27.41.742-.131,1.056L10.085,7.807a2.035,2.035,0,0,1-1.831.077L.316,3.3c-.468-.271-.41-.744.131-1.058L3.889.259A2.032,2.032,0,0,1,5.718.182" transform="translate(227.29 334.413)" fill="#173d7a"/>
      <path id="Fill_185" data-name="Fill 185" d="M5.718.182l7.941,4.583c.468.27.41.744-.133,1.056l-3.44,1.987a2.042,2.042,0,0,1-1.832.076L.316,3.3c-.468-.271-.41-.744.133-1.058L3.889.259A2.032,2.032,0,0,1,5.718.182" transform="translate(216.283 328.06)" fill="#173d7a"/>
      <path id="Fill_187" data-name="Fill 187" d="M5.719.182l7.94,4.583c.468.27.41.742-.131,1.055L10.086,7.807a2.034,2.034,0,0,1-1.831.076L.317,3.3c-.47-.273-.411-.745.131-1.058L3.89.258A2.036,2.036,0,0,1,5.719.182" transform="translate(233.368 330.905)" fill="#173d7a"/>
      <path id="Fill_189" data-name="Fill 189" d="M7.987,7.146,1.171,3.212A2.808,2.808,0,0,1,0,1.013C-.014.164.487-.229,1.12.137L7.937,4.071a2.817,2.817,0,0,1,1.17,2.2c.014.849-.488,1.242-1.12.877" transform="translate(242.916 167.504)" fill="#d4ecff"/>
      <path id="Fill_191" data-name="Fill 191" d="M11.221,9.012,1.17,3.212A2.813,2.813,0,0,1,0,1.012C-.014.164.487-.229,1.12.137l10.052,5.8a2.816,2.816,0,0,1,1.17,2.2c.014.849-.488,1.242-1.12.877" transform="translate(255.919 175.011)" fill="#d4ecff"/>
      <path id="Fill_193" data-name="Fill 193" d="M7.987,7.146,1.171,3.212A2.808,2.808,0,0,1,0,1.013C-.014.164.487-.229,1.12.137L7.937,4.071a2.817,2.817,0,0,1,1.17,2.2c.014.849-.488,1.242-1.12.877" transform="translate(239.538 203.846)" fill="#d4ecff"/>
      <path id="Fill_195" data-name="Fill 195" d="M11.22,9.014,1.17,3.212A2.806,2.806,0,0,1,0,1.013C-.014.164.486-.229,1.12.137l10.052,5.8a2.819,2.819,0,0,1,1.17,2.2c.013.848-.488,1.242-1.121.877" transform="translate(250.779 210.334)" fill="#d4ecff"/>
      <path id="Fill_197" data-name="Fill 197" d="M5.428,5.669,1.171,3.21A2.812,2.812,0,0,1,0,1.012C-.014.164.487-.229,1.12.137L5.38,2.594a2.821,2.821,0,0,1,1.17,2.2c.014.849-.488,1.242-1.121.877" transform="translate(226.783 164.575)" fill="#d4ecff"/>
      <path id="Fill_199" data-name="Fill 199" d="M14.182,10.721,1.171,3.212A2.818,2.818,0,0,1,0,1.013C-.013.164.489-.229,1.121.137l13.01,7.511a2.808,2.808,0,0,1,1.17,2.2c.014.849-.487,1.242-1.12.877" transform="translate(232.571 174.298)" fill="#d4ecff"/>
      <path id="Fill_201" data-name="Fill 201" d="M5.429,5.669,1.171,3.21A2.812,2.812,0,0,1,0,1.012C-.014.164.489-.229,1.12.137L5.38,2.594a2.821,2.821,0,0,1,1.17,2.2c.014.849-.488,1.242-1.12.877" transform="translate(232.78 187.183)" fill="#d4ecff"/>
      <path id="Fill_203" data-name="Fill 203" d="M12.544,9.777,1.17,3.211A2.816,2.816,0,0,1,0,1.012C-.014.164.489-.228,1.121.136L12.5,6.7a2.819,2.819,0,0,1,1.17,2.2c.014.848-.488,1.242-1.121.877" transform="translate(254.481 225.236)" fill="#d4ecff"/>
      <path id="Fill_205" data-name="Fill 205" d="M3.9,4.789,1.17,3.212A2.809,2.809,0,0,1,0,1.013C-.014.164.486-.229,1.12.137L3.853,1.714a2.814,2.814,0,0,1,1.17,2.2c.014.848-.488,1.241-1.12.877" transform="translate(232.99 200.066)" fill="#d4ecff"/>
      <path id="Fill_207" data-name="Fill 207" d="M4.566,5.171l-3.4-1.96A2.814,2.814,0,0,1,0,1.012C-.013.163.489-.229,1.121.137L4.516,2.1a2.819,2.819,0,0,1,1.17,2.2c.014.848-.488,1.241-1.12.877" transform="translate(233.198 212.951)" fill="#d4ecff"/>
      <path id="Fill_209" data-name="Fill 209" d="M10.119,8.377,1.17,3.212A2.81,2.81,0,0,1,0,1.013C-.014.164.487-.229,1.12.137L10.069,5.3a2.805,2.805,0,0,1,1.17,2.2c.014.848-.487,1.242-1.12.877" transform="translate(240.849 217.367)" fill="#d4ecff"/>
      <path id="Fill_211" data-name="Fill 211" d="M7.606,6.925,1.17,3.21A2.816,2.816,0,0,1,0,1.012C-.014.164.489-.229,1.121.137L7.556,3.851a2.816,2.816,0,0,1,1.17,2.2c.014.848-.488,1.242-1.12.877" transform="translate(233.303 219.393)" fill="#d4ecff"/>
      <path id="Fill_213" data-name="Fill 213" d="M5.3,5.6,1.171,3.21A2.811,2.811,0,0,1,0,1.013C-.013.164.489-.229,1.121.137L5.254,2.522a2.814,2.814,0,0,1,1.17,2.2c.014.848-.488,1.241-1.12.875" transform="translate(271.487 235.08)" fill="#d4ecff"/>
      <path id="Fill_215" data-name="Fill 215" d="M12.545,9.776,1.17,3.21A2.816,2.816,0,0,1,0,1.012C-.013.164.489-.229,1.121.137L12.5,6.7a2.819,2.819,0,0,1,1.17,2.2c.014.848-.488,1.241-1.12.877" transform="translate(241.505 192.219)" fill="#d4ecff"/>
      <path id="Fill_217" data-name="Fill 217" d="M20.993,14.653,1.17,3.21A2.819,2.819,0,0,1,0,1.012C-.014.164.489-.229,1.12.137L20.943,11.578a2.817,2.817,0,0,1,1.17,2.2c.014.848-.488,1.241-1.12.877" transform="translate(232.676 180.741)" fill="#d4ecff"/>
      <path id="Fill_219" data-name="Fill 219" d="M12.544,9.776,1.17,3.21A2.809,2.809,0,0,1,0,1.013C-.014.164.489-.229,1.12.137L12.494,6.7a2.812,2.812,0,0,1,1.17,2.2c.014.849-.488,1.242-1.12.877" transform="translate(232.886 193.624)" fill="#d4ecff"/>
      <path id="Fill_221" data-name="Fill 221" d="M5.3,5.6,1.17,3.212A2.819,2.819,0,0,1,0,1.013C-.014.164.489-.229,1.12.137L5.254,2.522a2.821,2.821,0,0,1,1.17,2.2c.014.848-.488,1.241-1.121.877" transform="translate(257.373 201.377)" fill="#d4ecff"/>
      <path id="Fill_223" data-name="Fill 223" d="M25.641,17.337,1.17,3.212A2.81,2.81,0,0,1,0,1.013C-.014.164.487-.229,1.12.137L25.591,14.263a2.812,2.812,0,0,1,1.17,2.2c.014.849-.487,1.242-1.12.877" transform="translate(272.156 184.382)" fill="#d4ecff"/>
      <path id="Fill_225" data-name="Fill 225" d="M14.843,11.1,1.171,3.211A2.808,2.808,0,0,1,0,1.013C-.013.163.487-.228,1.121.136L14.793,8.029a2.813,2.813,0,0,1,1.17,2.2c.014.848-.488,1.242-1.12.877" transform="translate(233.094 206.509)" fill="#d4ecff"/>
      <path id="Fill_227" data-name="Fill 227" d="M11.221,9.012,1.17,3.21A2.808,2.808,0,0,1,0,1.012C-.014.164.487-.229,1.12.137l10.052,5.8a2.816,2.816,0,0,1,1.17,2.2c.014.849-.488,1.242-1.12.877" transform="translate(226.679 158.133)" fill="#d4ecff"/>
      <path id="Fill_229" data-name="Fill 229" d="M12.812,9.93,1.171,3.211A2.812,2.812,0,0,1,0,1.012C-.013.163.487-.229,1.12.137L12.762,6.855a2.819,2.819,0,0,1,1.17,2.2c.014.848-.488,1.242-1.12.877" transform="translate(227.722 222.554)" fill="#d4ecff"/>
      <path id="Fill_231" data-name="Fill 231" d="M.171,21.321l31.2-18.162C37.555-.41,43.384-.974,47.788,1.566s6.827,7.872,6.827,15.007v2.286c-.22.148-.451.294-.687.44V16.573c0-6.88-2.3-12-6.484-14.411S37.677.315,31.717,3.754L.516,21.916a.344.344,0,1,1-.344-.6" transform="translate(85.332 167.231)" fill="#d4ecff"/>
      <path id="Fill_233" data-name="Fill 233" d="M15.485,111.625v-70.3c0-14.071,9.916-31.244,22.105-38.279C43.561-.4,49.191-.942,53.445,1.513s6.6,7.6,6.6,14.493v4.9l-.687.688V16.007c0-6.636-2.221-11.571-6.252-13.9S43.683.329,37.936,3.645c-12,6.927-21.762,23.831-21.762,37.684v70.3c0,11.664-6.864,25.468-16.173,33.773v-.922c8.941-8.215,15.485-21.553,15.485-32.851" transform="translate(167.322 55.29)" fill="#d4ecff"/>
      <path id="Fill_235" data-name="Fill 235" d="M.687,7.014h0A27.619,27.619,0,0,1,14.772.12c8.708-1.331,12.3,8.848,12.3,8.848a56.025,56.025,0,0,1,.971,8.417c-.036,3.129-.26,14.493-.26,14.493l-27.6-15.9v0a.34.34,0,0,1-.188-.3V7.609c.23-.23.458-.365.687-.6" transform="translate(226.677 71.336)" fill="#173d7a"/>
      <path id="Fill_237" data-name="Fill 237" d="M79.674,16.462,53.514,1.385l.1.375C49.584-.843,43.491-1.125,35.34,4.851,19.149,16.722,17.206,33.246,16.379,36.342s-.486,22.715-.486,22.715-.054,47.316-.107,52.82-1.656,11.678-4.749,18.345S0,144.978,0,144.978v9.631c1.269,10.413,5.693,12.84,12.278,13.434,5.314.48,10.975-3.356,15.5-7.538-.166.176-.273.286-.273.286v9.631c1.268,10.413,5.693,12.84,12.278,13.434s13.7-5.436,18.528-10.539,8.893-12.9,11.153-19.927,1.511-16.114,1.511-16.114.054-51.723.109-61.921.377-8.417,3.724-18.668S87.02,39.26,87.02,39.26L108.3,32.923Z" transform="translate(167.254 55.418)" fill="#d4ecff"/>
      <path id="Fill_239" data-name="Fill 239" d="M62.127,54.908c-.358-.488-5.021-3.612-6.207-9.115a42.886,42.886,0,0,1-.594-7.715s.02-2.59.083-4.942c.051-.044.106-.089.157-.134v-.922l-.13.114c.019-.531.039-1.031.061-1.453.136-2.447-1.672-7.661-1.672-7.661s-2.563-6.987-10.2-7.258c-6.78-.238-13.916,4.637-15.435,5.736V18.4c-.1.069-.208.133-.313.2.009-.423.017-.854.029-1.279.051-.046.106-.087.159-.133v-.924c-.044.039-.087.074-.13.113.017-.531.039-1.029.061-1.452.134-2.446-1.672-7.662-1.672-7.662S23.759.278,16.122.009C9.342-.231,2.206,4.645.688,5.743V2.59c-.221.15-.453.3-.688.44V8.551c0,6.693,2.231,11.722,6.28,14.221l.016.017.141.083c.039.023.074.049.111.07s.051.023.077.037l28,16.117c-.007-.009-.026-.026-.036-.039Z" transform="translate(139.259 183.499)" fill="#173d7a"/>
      <path id="Fill_241" data-name="Fill 241" d="M75.158,17.083s-.208-.108-.58-.258c-.113-.054-.223-.118-.338-.17L47.655,1.271a14.263,14.263,0,0,0-10.791-.4C30.956,3.028,0,21.594,0,21.594L27.654,37.523l0,0a.348.348,0,0,0,.076.02l27.423,15.8s15.514-9.611,26.248-15.811l.688-.4c4.39-2.523,7.874-4.407,8.968-4.7a17.018,17.018,0,0,1,12.421,1.041Z" transform="translate(85.464 167.526)" fill="#d4ecff"/>
      <path id="Fill_243" data-name="Fill 243" d="M.553.621.875.807S.758.734.553.621" transform="translate(188.393 200.379)" fill="#d4ecff"/>
      <path id="Fill_245" data-name="Fill 245" d="M.687,7.014h0A27.619,27.619,0,0,1,14.772.12c8.706-1.331,12.3,8.848,12.3,8.848a55.925,55.925,0,0,1,.972,8.416c-.036,3.129-.26,14.495-.26,14.495l-27.6-15.9v0a.34.34,0,0,1-.188-.3V7.609c.228-.23.458-.365.687-.6" transform="translate(254.179 87.149)" fill="#173d7a"/>
      <path id="Fill_247" data-name="Fill 247" d="M66.319,152.655a20.123,20.123,0,0,0,9.9-3.028c12.1-6.984,21.947-24.033,21.947-38V41.33c0-13.852,9.762-30.757,21.762-37.685,5.748-3.316,11.133-3.863,15.165-1.536s6.252,7.264,6.252,13.9V31.723a.345.345,0,0,0,.69,0V16.008c0-6.891-2.343-12.039-6.6-14.495S125.551-.4,119.582,3.051C107.393,10.086,97.474,27.258,97.474,41.33v70.3c0,13.751-9.69,30.53-21.6,37.405-5.7,3.294-11.051,3.835-15.054,1.525s-6.2-7.21-6.2-13.8v-8.247c0-7.135-2.426-12.465-6.83-15.006s-10.231-1.977-16.413,1.592L.172,133.262a.344.344,0,1,0,.344.6l31.2-18.162c5.958-3.439,11.544-4,15.725-1.592s6.483,7.531,6.483,14.411v8.247c0,6.843,2.326,11.954,6.55,14.391a11.544,11.544,0,0,0,5.843,1.5" transform="translate(140.446 87.003)" fill="#396caa"/>
      <path id="Fill_249" data-name="Fill 249" d="M5.405,4.835.793,2.173A1.9,1.9,0,0,1,0,.685C-.008.11.33-.154.758.093L5.371,2.754a1.907,1.907,0,0,1,.791,1.488c.01.575-.328.841-.757.594" transform="translate(203.514 140.726)" fill="#5793ce"/>
      <path id="Fill_251" data-name="Fill 251" d="M7.593,6.1.791,2.173A1.9,1.9,0,0,1,0,.685C-.01.112.33-.154.758.092l6.8,3.926a1.911,1.911,0,0,1,.791,1.488c.009.575-.33.841-.758.594" transform="translate(211.12 145.115)" fill="#5793ce"/>
      <path id="Fill_253" data-name="Fill 253" d="M9.6,7.255.793,2.172A1.9,1.9,0,0,1,0,.685C-.01.111.332-.155.76.092l8.8,5.081a1.909,1.909,0,0,1,.791,1.488c.009.575-.33.841-.758.594" transform="translate(198.8 120.731)" fill="#5793ce"/>
      <path id="Fill_255" data-name="Fill 255" d="M3.673,3.836.791,2.172A1.907,1.907,0,0,1,0,.685C-.008.111.33-.155.758.092L3.64,1.756a1.909,1.909,0,0,1,.791,1.488c.01.574-.33.839-.758.592" transform="translate(198.942 129.45)" fill="#5793ce"/>
      <path id="Fill_257" data-name="Fill 257" d="M2.642,3.24.791,2.172A1.9,1.9,0,0,1,0,.685C-.008.111.33-.155.758.092L2.609,1.159A1.91,1.91,0,0,1,3.4,2.646c.01.575-.328.841-.757.594" transform="translate(199.083 138.168)" fill="#5793ce"/>
      <path id="Fill_259" data-name="Fill 259" d="M8.487,6.615.791,2.172A1.9,1.9,0,0,1,0,.685C-.01.111.33-.155.757.092l7.7,4.441a1.909,1.909,0,0,1,.791,1.488c.01.575-.33.841-.758.594" transform="translate(204.846 132.858)" fill="#5793ce"/>
      <path id="Fill_261" data-name="Fill 261" d="M14.2,9.915.79,2.173A1.908,1.908,0,0,1,0,.686C-.01.11.329-.155.757.093L14.172,7.834a1.911,1.911,0,0,1,.791,1.488c.009.575-.33.841-.758.594" transform="translate(198.872 125.091)" fill="#5793ce"/>
      <path id="Fill_263" data-name="Fill 263" d="M8.488,6.615.791,2.172A1.907,1.907,0,0,1,0,.685C-.01.111.33-.155.758.092l7.7,4.441a1.909,1.909,0,0,1,.791,1.488c.01.575-.33.841-.757.594" transform="translate(199.013 133.809)" fill="#5793ce"/>
      <path id="Fill_265" data-name="Fill 265" d="M3.589,3.787.793,2.174A1.908,1.908,0,0,1,0,.686C-.008.111.331-.155.76.092l2.8,1.615a1.907,1.907,0,0,1,.791,1.488c.01.574-.33.839-.758.592" transform="translate(215.582 139.055)" fill="#5793ce"/>
      <path id="Fill_267" data-name="Fill 267" d="M5.405,4.835.793,2.172A1.9,1.9,0,0,1,0,.685C-.01.111.33-.155.758.092L5.371,2.753a1.911,1.911,0,0,1,.791,1.488c.01.575-.33.841-.757.594" transform="translate(205.8 116.135)" fill="#5793ce"/>
      <path id="Fill_269" data-name="Fill 269" d="M7.593,6.1.791,2.172A1.9,1.9,0,0,1,0,.685C-.008.111.33-.155.758.092l6.8,3.925A1.911,1.911,0,0,1,8.351,5.5c.01.575-.33.841-.758.594" transform="translate(214.598 121.214)" fill="#5793ce"/>
      <path id="Fill_271" data-name="Fill 271" d="M5.405,4.835.793,2.173A1.9,1.9,0,0,1,0,.685C-.008.11.33-.154.758.093L5.371,2.754a1.907,1.907,0,0,1,.791,1.488c.01.575-.328.841-.757.594" transform="translate(203.514 140.726)" fill="#5793ce"/>
      <path id="Fill_273" data-name="Fill 273" d="M7.593,6.1.791,2.173A1.9,1.9,0,0,1,0,.685C-.01.112.33-.154.758.092l6.8,3.926a1.911,1.911,0,0,1,.791,1.488c.009.575-.33.841-.758.594" transform="translate(211.12 145.115)" fill="#5793ce"/>
      <path id="Fill_275" data-name="Fill 275" d="M3.673,3.836.791,2.172A1.909,1.909,0,0,1,0,.685C-.01.111.33-.155.758.092L3.64,1.756a1.906,1.906,0,0,1,.791,1.486c.009.575-.33.841-.758.594" transform="translate(194.884 114.152)" fill="#5793ce"/>
      <path id="Fill_277" data-name="Fill 277" d="M9.6,7.255.793,2.172A1.9,1.9,0,0,1,0,.685C-.01.111.332-.155.76.092l8.8,5.081a1.909,1.909,0,0,1,.791,1.488c.009.575-.33.841-.758.594" transform="translate(198.8 120.731)" fill="#5793ce"/>
      <path id="Fill_279" data-name="Fill 279" d="M3.673,3.836.791,2.172A1.907,1.907,0,0,1,0,.685C-.008.111.33-.155.758.092L3.64,1.756a1.909,1.909,0,0,1,.791,1.488c.01.574-.33.839-.758.592" transform="translate(198.942 129.45)" fill="#5793ce"/>
      <path id="Fill_281" data-name="Fill 281" d="M8.488,6.615.791,2.172A1.907,1.907,0,0,1,0,.685C-.01.111.33-.155.758.092l7.7,4.441a1.9,1.9,0,0,1,.791,1.488c.01.575-.328.841-.757.594" transform="translate(213.626 155.199)" fill="#5793ce"/>
      <path id="Fill_283" data-name="Fill 283" d="M2.642,3.24.791,2.172A1.9,1.9,0,0,1,0,.685C-.008.111.33-.155.758.092L2.609,1.159A1.91,1.91,0,0,1,3.4,2.646c.01.575-.328.841-.757.594" transform="translate(199.083 138.168)" fill="#5793ce"/>
      <path id="Fill_285" data-name="Fill 285" d="M3.089,3.5.793,2.172A1.9,1.9,0,0,1,0,.685C-.01.111.33-.155.758.092l2.3,1.325A1.906,1.906,0,0,1,3.846,2.9c.01.575-.328.841-.757.594" transform="translate(199.225 146.886)" fill="#5793ce"/>
      <path id="Fill_287" data-name="Fill 287" d="M6.849,5.669.793,2.174A1.908,1.908,0,0,1,0,.686C-.008.111.331-.155.758.092L6.814,3.587a1.911,1.911,0,0,1,.791,1.488c.01.575-.33.841-.757.594" transform="translate(204.401 149.874)" fill="#5793ce"/>
      <path id="Fill_289" data-name="Fill 289" d="M5.147,4.686.791,2.172A1.9,1.9,0,0,1,0,.686C-.008.111.33-.155.758.092L5.114,2.6A1.908,1.908,0,0,1,5.9,4.093c.01.575-.328.841-.757.594" transform="translate(199.295 151.245)" fill="#5793ce"/>
      <path id="Fill_291" data-name="Fill 291" d="M8.487,6.615.791,2.172A1.9,1.9,0,0,1,0,.685C-.01.111.33-.155.757.092l7.7,4.441a1.909,1.909,0,0,1,.791,1.488c.01.575-.33.841-.758.594" transform="translate(204.846 132.858)" fill="#5793ce"/>
      <path id="Fill_293" data-name="Fill 293" d="M14.2,9.915.79,2.173A1.908,1.908,0,0,1,0,.686C-.01.11.329-.155.757.093L14.172,7.834a1.911,1.911,0,0,1,.791,1.488c.009.575-.33.841-.758.594" transform="translate(198.872 125.091)" fill="#5793ce"/>
      <path id="Fill_295" data-name="Fill 295" d="M8.488,6.615.791,2.172A1.907,1.907,0,0,1,0,.685C-.01.111.33-.155.758.092l7.7,4.441a1.909,1.909,0,0,1,.791,1.488c.01.575-.33.841-.757.594" transform="translate(199.013 133.809)" fill="#5793ce"/>
      <path id="Fill_297" data-name="Fill 297" d="M3.589,3.787.793,2.174A1.908,1.908,0,0,1,0,.686C-.008.111.331-.155.76.092l2.8,1.615a1.907,1.907,0,0,1,.791,1.488c.01.574-.33.839-.758.592" transform="translate(215.582 139.055)" fill="#5793ce"/>
      <path id="Fill_299" data-name="Fill 299" d="M10.043,7.513.791,2.174A1.911,1.911,0,0,1,0,.686C-.008.111.33-.155.758.092L10.01,5.432A1.911,1.911,0,0,1,10.8,6.919c.009.575-.33.841-.758.594" transform="translate(199.154 142.527)" fill="#5793ce"/>
      <path id="Fill_301" data-name="Fill 301" d="M7.593,6.1.791,2.173A1.9,1.9,0,0,1,0,.685C-.008.112.33-.154.758.092l6.8,3.926a1.909,1.909,0,0,1,.791,1.488c.009.575-.33.841-.758.594" transform="translate(194.813 109.793)" fill="#5793ce"/>
      <path id="Fill_303" data-name="Fill 303" d="M8.668,6.719.791,2.172A1.907,1.907,0,0,1,0,.685C-.01.111.33-.155.758.092L8.635,4.639a1.907,1.907,0,0,1,.791,1.488c.01.574-.33.839-.758.592" transform="translate(195.52 153.384)" fill="#5793ce"/>
      <path id="Fill_305" data-name="Fill 305" d="M5.4,4.835.793,2.173A1.9,1.9,0,0,1,0,.685C-.01.11.329-.154.757.093L5.371,2.754a1.911,1.911,0,0,1,.791,1.488c.009.575-.33.841-.758.594" transform="translate(202.431 182.093)" fill="#5793ce"/>
      <path id="Fill_307" data-name="Fill 307" d="M7.591,6.1.79,2.172A1.9,1.9,0,0,1,0,.685C-.01.111.329-.155.757.092l6.8,3.925A1.911,1.911,0,0,1,8.35,5.5c.01.575-.33.841-.758.594" transform="translate(210.037 186.483)" fill="#5793ce"/>
      <path id="Fill_309" data-name="Fill 309" d="M9.6,7.255.793,2.172A1.9,1.9,0,0,1,0,.685C-.008.111.331-.155.76.092l8.8,5.081a1.911,1.911,0,0,1,.791,1.488c.01.575-.33.841-.758.594" transform="translate(197.715 162.099)" fill="#5793ce"/>
      <path id="Fill_311" data-name="Fill 311" d="M3.673,3.836.791,2.173A1.909,1.909,0,0,1,0,.686C-.01.11.329-.154.757.092L3.64,1.755a1.9,1.9,0,0,1,.79,1.488c.01.575-.328.841-.757.594" transform="translate(197.858 170.817)" fill="#5793ce"/>
      <path id="Fill_313" data-name="Fill 313" d="M2.642,3.24.793,2.172A1.9,1.9,0,0,1,0,.685C-.008.111.331-.155.76.092L2.609,1.159A1.911,1.911,0,0,1,3.4,2.646c.009.575-.33.841-.758.594" transform="translate(197.998 179.535)" fill="#5793ce"/>
      <path id="Fill_315" data-name="Fill 315" d="M8.488,6.615.791,2.172A1.907,1.907,0,0,1,0,.685C-.008.111.33-.155.758.092l7.7,4.441a1.911,1.911,0,0,1,.791,1.488c.009.575-.33.841-.758.594" transform="translate(203.762 174.225)" fill="#5793ce"/>
      <path id="Fill_317" data-name="Fill 317" d="M14.206,9.915.791,2.173A1.909,1.909,0,0,1,0,.686C-.01.11.33-.155.758.093L14.172,7.834a1.911,1.911,0,0,1,.791,1.488c.01.575-.33.841-.757.594" transform="translate(197.787 166.458)" fill="#5793ce"/>
      <path id="Fill_319" data-name="Fill 319" d="M8.487,6.615.79,2.172A1.9,1.9,0,0,1,0,.685C-.01.111.329-.155.757.092l7.7,4.441a1.909,1.909,0,0,1,.791,1.488c.009.575-.33.841-.758.594" transform="translate(197.93 175.176)" fill="#5793ce"/>
      <path id="Fill_321" data-name="Fill 321" d="M3.589,3.787.793,2.174A1.906,1.906,0,0,1,0,.686C-.01.111.332-.155.758.092l2.8,1.615a1.905,1.905,0,0,1,.79,1.488c.01.574-.328.839-.757.592" transform="translate(214.498 180.422)" fill="#5793ce"/>
      <g id="Group_325" data-name="Group 325" transform="translate(242.757 415.013)">
        <path id="Clip_324-2" data-name="Clip 324" d="M0,0H32.834V18.953H0Z" transform="translate(0.016 0.034)" fill="none"/>
        <g id="Group_325-2" data-name="Group 325" clip-path="url(#clip-path)">
          <path id="Fill_323" data-name="Fill 323" d="M0,9.477,16.418,0,32.834,9.477,16.418,18.953Z" transform="translate(0.016 0.034)" fill="#d4ecff"/>
        </g>
      </g>
      <path id="Fill_326" data-name="Fill 326" d="M0,9.477,16.418,0,32.834,9.477,16.418,18.953Z" transform="translate(277.62 394.663)" fill="#d4ecff"/>
      <path id="Fill_328" data-name="Fill 328" d="M0,9.477,16.418,0,32.834,9.477,16.418,18.953Z" transform="translate(312.363 374.765)" fill="#d4ecff"/>
      <path id="Fill_330" data-name="Fill 330" d="M16.418,60.015V9.477L0,0V50.538Z" transform="translate(277.62 344.125)" fill="#c13d1a"/>
      <path id="Fill_332" data-name="Fill 332" d="M0,9.477,16.418,0V50.54L0,60.015Z" transform="translate(294.038 344.124)" fill="#97a32b"/>
      <path id="Fill_334" data-name="Fill 334" d="M16.418,60.015V9.477L0,0V50.538Z" transform="translate(277.62 344.125)" fill="#97a32b"/>
      <path id="Fill_336" data-name="Fill 336" d="M16.418,37.905V9.477L0,0V28.428Z" transform="translate(242.773 386.619)" fill="#89272c"/>
      <path id="Fill_338" data-name="Fill 338" d="M0,9.477,16.416,0V28.428L0,37.905Z" transform="translate(259.19 386.618)" fill="#89272c"/>
      <path id="Fill_340" data-name="Fill 340" d="M0,9.477,16.418,0,32.834,9.477,16.418,18.953Z" transform="translate(242.773 377.142)" fill="#ba3335"/>
      <path id="Fill_342" data-name="Fill 342" d="M16.418,78.967V9.475L0,0V69.49Z" transform="translate(312.363 305.275)" fill="#177287"/>
      <path id="Fill_344" data-name="Fill 344" d="M0,9.477,16.416,0V69.491L0,78.968Z" transform="translate(328.781 305.274)" fill="#177287"/>
      <path id="Fill_346" data-name="Fill 346" d="M0,9.477,16.418,0,32.834,9.477,16.418,18.953Z" transform="translate(312.363 295.798)" fill="#1b8eba"/>
      <path id="Fill_348" data-name="Fill 348" d="M0,9.477,16.418,0,32.835,9.477,16.418,18.953Z" transform="translate(277.62 334.648)" fill="#bdd336"/>
      <path id="Fill_350" data-name="Fill 350" d="M43.856,22.4,5.675.356A1.956,1.956,0,0,0,3.7.2s0-.026,0-.026L0,2.313s1.641.6,2.6.951v27.8A7.351,7.351,0,0,0,5.675,36.93L42.17,58v3.261L45.911,59.1l-.02-.006a2.727,2.727,0,0,0,1.037-2.45V28.263A7.354,7.354,0,0,0,43.856,22.4" transform="translate(299.366 95.236)" fill="#89272c"/>
      <path id="Fill_352" data-name="Fill 352" d="M41.254,58.981,3.073,36.942A7.351,7.351,0,0,1,0,31.074V2.69C0,.429,1.375-.611,3.073.369L41.254,22.407a7.357,7.357,0,0,1,3.072,5.869V56.66c0,2.261-1.375,3.3-3.072,2.321" transform="translate(298.197 97.398)" fill="#ba3335"/>
      <path id="Fill_354" data-name="Fill 354" d="M5.152,4.813C5.152,6.455,4,7.121,2.576,6.3A5.7,5.7,0,0,1,0,1.839C0,.2,1.154-.469,2.576.352A5.693,5.693,0,0,1,5.152,4.813" transform="translate(308.957 119.746)" fill="#fff"/>
      <path id="Fill_356" data-name="Fill 356" d="M5.152,4.813C5.152,6.455,4,7.121,2.575,6.3A5.7,5.7,0,0,1,0,1.839C0,.2,1.152-.469,2.575.352A5.693,5.693,0,0,1,5.152,4.813" transform="translate(316.762 124.251)" fill="#fff"/>
      <path id="Fill_358" data-name="Fill 358" d="M5.151,4.813C5.151,6.454,4,7.121,2.575,6.3A5.7,5.7,0,0,1,0,1.839C0,.2,1.152-.47,2.575.351A5.7,5.7,0,0,1,5.151,4.813" transform="translate(324.567 128.756)" fill="#fff"/>
      <g id="Group_362" data-name="Group 362" transform="translate(1)">
        <path id="Clip_361-2" data-name="Clip 361" d="M0,0H46.038V60.1H0Z" transform="translate(0.146 0.224)" fill="none"/>
        <g id="Group_362-2" data-name="Group 362" clip-path="url(#clip-path-2)">
          <path id="Fill_360" data-name="Fill 360" d="M43.025,21.971,5.568.35A1.917,1.917,0,0,0,3.631.2s0-.024,0-.024L0,2.27s1.609.587,2.553.934V30.474a7.218,7.218,0,0,0,3.014,5.758L41.37,56.9v3.2l3.67-2.114-.02-.007a2.667,2.667,0,0,0,1.018-2.4V27.729a7.215,7.215,0,0,0-3.013-5.758" transform="translate(0.146 0.223)" fill="#97a32b"/>
        </g>
      </g>
      <path id="Fill_363" data-name="Fill 363" d="M40.472,57.862,3.014,36.241A7.211,7.211,0,0,1,0,30.485V2.639C0,.42,1.349-.6,3.014.362l37.457,21.62a7.217,7.217,0,0,1,3.013,5.758V55.585c0,2.219-1.348,3.238-3.013,2.277" transform="translate(0 2.345)" fill="#bdd336"/>
      <path id="Fill_365" data-name="Fill 365" d="M5.055,4.721c0,1.61-1.131,2.264-2.528,1.458A5.582,5.582,0,0,1,0,1.8C0,.193,1.132-.461,2.528.346A5.58,5.58,0,0,1,5.055,4.721" transform="translate(10.555 24.27)" fill="#fff"/>
      <path id="Fill_367" data-name="Fill 367" d="M5.054,4.721c0,1.61-1.131,2.264-2.528,1.458A5.582,5.582,0,0,1,0,1.8C0,.193,1.131-.461,2.526.346A5.58,5.58,0,0,1,5.054,4.721" transform="translate(18.213 28.689)" fill="#fff"/>
      <path id="Fill_369" data-name="Fill 369" d="M5.055,4.721c0,1.612-1.131,2.264-2.528,1.459A5.586,5.586,0,0,1,0,1.8C0,.193,1.132-.461,2.528.346A5.582,5.582,0,0,1,5.055,4.721" transform="translate(25.868 33.108)" fill="#fff"/>
    </g>
  </g>
</svg>
