<svg width="72" height="74" viewBox="0 0 72 74" fill="none" xmlns="http://www.w3.org/2000/svg">
<g id="np_call_914829_000000">
<path id="Path" d="M37.1559 67.3751C37.1559 70.6739 32.2047 70.6739 32.2047 67.3751C32.2047 64.0763 37.1559 64.0763 37.1559 67.3751" fill="white"/>
<path id="Path_2" d="M30.2567 5.5C29.7323 5.5 29.2811 5.95117 29.2811 6.4756C29.2811 7.00003 29.7323 7.4512 30.2567 7.4512H39.1802C39.7046 7.4512 40.1558 7.00003 40.1558 6.4756C40.1558 5.95117 39.7046 5.5 39.1802 5.5H30.2567Z" fill="white"/>
<path id="Shape" fill-rule="evenodd" clip-rule="evenodd" d="M62.2044 27.0243H55.3782L55.3812 6.39931C55.3812 2.94811 52.6068 0.173706 49.1556 0.173706H20.1313C16.6801 0.173706 13.9057 2.94811 13.9057 6.39931V67.7501C13.9057 71.2013 16.6801 73.9757 20.1313 73.9757H49.2321C52.6833 73.9757 55.4577 71.2013 55.4577 67.7501L55.4547 48.7016H62.2809C63.6315 48.7016 64.7565 47.5004 64.7565 46.0766V29.6501C64.7565 28.1501 63.6315 27.0251 62.2048 27.0251L62.2044 27.0243ZM16.3052 6.39931C16.3052 4.29871 18.0308 2.57311 20.1314 2.57311H49.2321C51.3327 2.57311 53.0583 4.29871 53.0583 6.39931V9.85051H16.3053L16.3052 6.39931ZM49.229 71.5763C51.3296 71.5763 53.0552 69.8507 53.0552 67.7501L53.055 63.4757H16.305V67.7501C16.305 69.8507 18.0306 71.5763 20.1312 71.5763H49.229ZM53.0552 61.0763H16.3052V12.2498H53.0552V26.9513H33.7044C32.3538 26.9513 31.2288 28.1525 31.2288 29.5763V45.9998C31.2288 47.4236 32.3538 48.6248 33.7044 48.6248H36.555L37.7562 55.5242L44.5062 48.6248H53.0547L53.0552 61.0763ZM62.2044 46.3751C62.43 46.3751 62.5794 46.2257 62.5794 46.0763H62.6556V29.6498C62.6556 29.5003 62.5062 29.3509 62.2806 29.3509H33.7041C33.4785 29.3509 33.3291 29.5003 33.3291 29.6498V46.0763C33.3291 46.2257 33.4785 46.3751 33.7041 46.3751H38.2803L39.1065 51.1007L43.7559 46.3751H62.2044Z" fill="white"/>
<path id="Path_3" d="M45.6317 43.3751C43.9061 44.2013 41.8817 41.5763 41.8817 41.5763L44.3573 39.2501C44.3573 39.2501 45.6317 40.6739 46.2323 40.4513C46.2323 40.4513 48.0311 39.4025 49.3817 36.5519C49.6073 36.0274 47.8055 35.0519 47.8055 35.0519L49.5311 32.1281C49.5311 32.1281 52.2323 33.4787 52.0799 35.0519C51.9305 36.6251 50.5066 41.0489 45.6316 43.3754L45.6317 43.3751Z" fill="white"/>
<path id="Path_4" d="M70.6037 21.25H69.4787V20.125C69.4787 19.75 69.1799 19.375 68.7287 19.375C68.3537 19.375 67.9787 19.6738 67.9787 20.125V21.25H66.8537C66.4787 21.25 66.1037 21.5488 66.1037 22C66.1037 22.375 66.4025 22.75 66.8537 22.75H68.0549V23.875C68.0549 24.25 68.3537 24.625 68.8049 24.625C69.1799 24.625 69.5549 24.3262 69.5549 23.875V22.75H70.6799C71.0549 22.75 71.4299 22.4512 71.4299 22C71.2805 21.625 70.9787 21.25 70.6037 21.25Z" fill="white"/>
<path id="Path_5" d="M9.55519 50.3508H8.43019V49.2258C8.43019 48.8508 8.13136 48.4758 7.68019 48.4758C7.22902 48.4758 6.93019 48.7747 6.93019 49.2258V50.3508H5.80519C5.43019 50.3508 5.05519 50.6497 5.05519 51.1008C5.05519 51.4758 5.35402 51.8508 5.80519 51.8508H6.93019V52.9758C6.93019 53.3508 7.22902 53.7258 7.68019 53.7258C8.13136 53.7258 8.43019 53.427 8.43019 52.9758V51.8508H9.55519C9.93019 51.8508 10.3052 51.552 10.3052 51.1008C10.229 50.6497 9.93019 50.3508 9.55519 50.3508Z" fill="white"/>
<path id="Path_6" d="M8.0552 13.7501H6.1802V11.8751C6.1802 11.3507 5.72903 10.8263 5.1314 10.8263C4.60698 10.8263 4.0826 11.2775 4.0826 11.8751L4.07967 13.7501H2.20467C1.68025 13.7501 1.15587 14.2013 1.15587 14.7989C1.15587 15.3233 1.60704 15.8477 2.20467 15.8477H4.07967V17.7227C4.07967 18.2471 4.53084 18.7715 5.12847 18.7715C5.65288 18.7715 6.17727 18.3203 6.17727 17.7227V15.8477L8.05519 15.8506C8.57961 15.8506 9.10399 15.3995 9.10399 14.8018C9.03075 14.2012 8.57958 13.7501 8.05519 13.7501L8.0552 13.7501Z" fill="white"/>
<path id="Path_7" d="M2.72899 34.4515C2.72899 36.2503 0.0307159 36.2503 0.0307159 34.4515C0.0307159 32.6498 2.72899 32.6498 2.72899 34.4515" fill="white"/>
<path id="Path_8" d="M65.2044 62.2743C65.2044 64.076 62.5062 64.076 62.5062 62.2743C62.5062 60.4755 65.2044 60.4755 65.2044 62.2743" fill="white"/>
<path id="Path_9" d="M64.3817 11.5765C64.3817 13.7767 61.08 13.7767 61.08 11.5765C61.08 9.37634 64.3817 9.37634 64.3817 11.5765" fill="white"/>
</g>
</svg>
